<svg xmlns="http://www.w3.org/2000/svg" xmlns:xlink="http://www.w3.org/1999/xlink" width="24" height="24" viewBox="0 0 24 24"><defs><style>.a{fill:#fff;stroke:#707070;}.b{clip-path:url(#a);}.c{fill-rule:evenodd;}</style><clipPath id="a"><rect class="a" width="24" height="24" transform="translate(867 529)"/></clipPath></defs><g class="b" transform="translate(-867 -529)"><g transform="translate(860.495 516.5)"><g transform="translate(7.505 12.5)"><path class="c" d="M-117.83-528.516a3,3,0,0,0-3.008,3.008h6.016A3,3,0,0,0-117.83-528.516Zm3.008,5.024v.992a1,1,0,0,0,.992.992,1,1,0,0,0,.992-.992v-.992h1.216a1,1,0,0,1,.992.9l1.536,12.992a.993.993,0,0,1-.992,1.12h-15.52a.993.993,0,0,1-.992-1.12l1.536-12.992a1,1,0,0,1,.992-.9h1.216v.992a1,1,0,0,0,.992.992,1,1,0,0,0,.992-.992v-.992Zm-8-2.016h-1.216a2.984,2.984,0,0,0-2.976,2.656l-1.536,12.992a3,3,0,0,0,2.976,3.36h15.52a3,3,0,0,0,2.976-3.36l-1.536-12.992a3.032,3.032,0,0,0-2.976-2.656h-1.216A5,5,0,0,0-117.8-530.5,5.005,5.005,0,0,0-122.822-525.508Z" transform="translate(128.573 530.5)"/></g></g></g></svg>