<svg xmlns="http://www.w3.org/2000/svg" width="34.933" height="21.618" viewBox="0 0 34.933 21.618"><g transform="translate(0 0)"><g transform="translate(0 9.552)"><path d="M30.476,4a1.049,1.049,0,0,0-.656,1.825l3.673,3.149H19.1c-.036,0-.073,0-.109,0a1.05,1.05,0,0,0,.109,2.1H33.494L29.82,14.211a1.049,1.049,0,1,0,1.42,1.541L36.9,10.788a1.049,1.049,0,0,0,0-1.541L31.241,4.285A1.049,1.049,0,0,0,30.476,4Z" transform="translate(-18 -4)"/></g><g transform="translate(34.933 12.065) rotate(180)"><g transform="translate(0)"><path d="M12.476,0a1.049,1.049,0,0,0-.656,1.825l3.673,3.149H1.1c-.036,0-.073,0-.109,0A1.091,1.091,0,0,0,0,6.078a1.091,1.091,0,0,0,1.1.994H15.494L11.82,10.211a1.049,1.049,0,1,0,1.42,1.541L18.9,6.788a1.049,1.049,0,0,0,0-1.541L13.241.285A1.049,1.049,0,0,0,12.476,0Z" transform="translate(0 0)"/></g></g></g></svg>