<svg xmlns="http://www.w3.org/2000/svg" width="24" height="25" viewBox="0 0 24 25"><defs><style>.a{fill:#1c76e6;}.b{fill:#fff;}</style></defs><g transform="translate(-0.458 -0.461)"><ellipse class="a" cx="12" cy="12.5" rx="12" ry="12.5" transform="translate(0.458 0.461)"/><g transform="translate(9.132 6.677)"><path class="b" d="M28.74,0,27.079,0a2.916,2.916,0,0,0-3.071,3.151V4.6h-1.67a.261.261,0,0,0-.261.261V6.971a.261.261,0,0,0,.261.261h1.67v5.312a.261.261,0,0,0,.261.261h2.178a.261.261,0,0,0,.261-.261V7.232h1.952a.261.261,0,0,0,.261-.261V4.866a.261.261,0,0,0-.261-.261H26.708V3.373c0-.592.141-.893.912-.893h1.119A.261.261,0,0,0,29,2.219V.264A.261.261,0,0,0,28.74,0Z" transform="translate(-22.077)"/></g></g></svg>