<svg xmlns="http://www.w3.org/2000/svg" xmlns:xlink="http://www.w3.org/1999/xlink" width="24" height="24" viewBox="0 0 24 24"><defs><style>.a{fill:#fff;stroke:#707070;}.b{clip-path:url(#a);}</style><clipPath id="a"><rect class="a" width="24" height="24" transform="translate(829 520)"/></clipPath></defs><g class="b" transform="translate(-829 -520)"><g transform="translate(819.783 516.891)"><path d="M26.946,10.636A6.484,6.484,0,0,0,20.52,4.109,6.376,6.376,0,0,0,15.146,7.04a6.409,6.409,0,0,0-11.791,3.6,6.655,6.655,0,0,0,.255,1.836c.547,3.024,4.2,6.513,7.738,9.887,1.229,1.173,2.391,2.28,3.378,3.329a.871.871,0,0,0,1.4-.173,61.665,61.665,0,0,1,4.694-4.982c2.988-2.945,5.574-5.494,5.886-8.112A6.6,6.6,0,0,0,26.946,10.636ZM25,11.989a.978.978,0,0,0-.033.165c-.2,2-2.713,4.478-5.371,7.1-1.446,1.426-2.936,2.894-4.29,4.483-.846-.86-1.778-1.747-2.751-2.676-3.19-3.045-6.807-6.5-7.219-8.943a.733.733,0,0,0-.025-.105,4.834,4.834,0,0,1-.2-1.374,4.659,4.659,0,0,1,8.906-2,.83.83,0,0,0,.068.123,3.2,3.2,0,0,1,.31.572.875.875,0,0,0,1.651-.083,4.661,4.661,0,0,1,4.471-3.355A4.765,4.765,0,0,1,25,11.989Z" transform="translate(5.862 0)"/></g></g></svg>