<svg xmlns="http://www.w3.org/2000/svg" xmlns:xlink="http://www.w3.org/1999/xlink" width="24" height="24" viewBox="0 0 24 24"><defs><style>.a{fill:#fff;stroke:#707070;}.b{clip-path:url(#a);}</style><clipPath id="a"><rect class="a" width="24" height="24" transform="translate(723 790)"/></clipPath></defs><g class="b" transform="translate(-723 -790)"><g transform="translate(723 790)"><path d="M24.388,7.057a8.771,8.771,0,0,0-.558-2.912A6.149,6.149,0,0,0,20.318.633,8.794,8.794,0,0,0,17.406.075C16.121.014,15.713,0,12.454,0S8.787.014,7.507.07A8.774,8.774,0,0,0,4.595.628,5.857,5.857,0,0,0,2.466,2.016,5.91,5.91,0,0,0,1.082,4.141,8.8,8.8,0,0,0,.524,7.053C.463,8.338.449,8.746.449,12s.014,3.667.07,4.947a8.771,8.771,0,0,0,.558,2.912A6.148,6.148,0,0,0,4.59,23.376a8.8,8.8,0,0,0,2.912.558c1.28.056,1.688.07,4.947.07s3.667-.014,4.947-.07a8.769,8.769,0,0,0,2.912-.558,6.14,6.14,0,0,0,3.512-3.512,8.8,8.8,0,0,0,.558-2.912c.056-1.28.07-1.688.07-4.947S24.444,8.338,24.388,7.057Zm-2.162,9.8a6.58,6.58,0,0,1-.413,2.227,3.982,3.982,0,0,1-2.279,2.279,6.6,6.6,0,0,1-2.227.413c-1.266.056-1.646.07-4.849.07s-3.587-.014-4.849-.07a6.576,6.576,0,0,1-2.227-.413A3.694,3.694,0,0,1,4,20.469a3.732,3.732,0,0,1-.9-1.379A6.6,6.6,0,0,1,2.7,16.863c-.056-1.266-.07-1.646-.07-4.849s.014-3.587.07-4.849a6.576,6.576,0,0,1,.413-2.227,3.649,3.649,0,0,1,.9-1.379,3.726,3.726,0,0,1,1.379-.9,6.607,6.607,0,0,1,2.227-.413c1.266-.056,1.646-.07,4.849-.07s3.587.014,4.849.07a6.58,6.58,0,0,1,2.227.413,3.691,3.691,0,0,1,1.379.9,3.731,3.731,0,0,1,.9,1.379,6.606,6.606,0,0,1,.413,2.227c.056,1.266.07,1.646.07,4.849S22.283,15.592,22.227,16.858Zm0,0" transform="translate(-0.449 0)"/><path d="M131.116,124.5a6.166,6.166,0,1,0,6.166,6.166A6.168,6.168,0,0,0,131.116,124.5Zm0,10.166a4,4,0,1,1,4-4A4,4,0,0,1,131.116,134.666Zm0,0" transform="translate(-119.111 -118.662)"/><path d="M365.329,90.041a1.44,1.44,0,1,1-1.44-1.44A1.44,1.44,0,0,1,365.329,90.041Zm0,0" transform="translate(-345.474 -84.447)"/></g></g></svg>