<svg xmlns="http://www.w3.org/2000/svg" xmlns:xlink="http://www.w3.org/1999/xlink" width="24" height="24" viewBox="0 0 24 24"><defs><style>.a{fill:#fff;stroke:#707070;}.b{clip-path:url(#a);}</style><clipPath id="a"><rect class="a" width="24" height="24" transform="translate(849 579)"/></clipPath></defs><g class="b" transform="translate(-849 -579)"><g transform="translate(849.11 579)"><g transform="translate(-0.11)"><path d="M11.73,0a6.905,6.905,0,0,1,3.565,12.817A11.75,11.75,0,0,1,23.561,22.98a.951.951,0,0,1-1.9.152,9.99,9.99,0,0,0-19.871,0A.951.951,0,0,1-.1,22.98,11.937,11.937,0,0,1,8.241,12.817,6.877,6.877,0,0,1,11.73,0Zm0,1.9A4.985,4.985,0,0,0,6.8,6.9a4.92,4.92,0,0,0,4.93,4.93A4.985,4.985,0,0,0,16.736,6.9,5.05,5.05,0,0,0,11.73,1.9Z" transform="translate(0.11)"/></g></g></g></svg>