<svg xmlns="http://www.w3.org/2000/svg" width="25.291" height="25.291" viewBox="0 0 25.291 25.291"><defs><style>.a{fill:#55acee;}.b{fill:#f1f2f2;}</style></defs><g transform="translate(0)"><ellipse class="a" cx="12.646" cy="12.646" rx="12.646" ry="12.646" transform="translate(0 0)"/><g transform="translate(5.659 7.671)"><path class="b" d="M39.836,35.445a6.031,6.031,0,0,1-1.736.475,3.031,3.031,0,0,0,1.329-1.672,6.051,6.051,0,0,1-1.919.733,3.025,3.025,0,0,0-5.151,2.757,8.58,8.58,0,0,1-6.23-3.159,3.026,3.026,0,0,0,.935,4.036,3,3,0,0,1-1.369-.378c0,.013,0,.026,0,.038a3.024,3.024,0,0,0,2.425,2.964,3.034,3.034,0,0,1-1.365.052,3.026,3.026,0,0,0,2.824,2.1A6.1,6.1,0,0,1,25.1,44.643,8.6,8.6,0,0,0,38.336,37.4c0-.131,0-.261-.009-.391a6.13,6.13,0,0,0,1.509-1.564Z" transform="translate(-25.103 -34.028)"/></g></g></svg>