<svg xmlns="http://www.w3.org/2000/svg" xmlns:xlink="http://www.w3.org/1999/xlink" width="24" height="24" viewBox="0 0 24 24"><defs><style>.a{fill:#fff;stroke:#707070;}.b{clip-path:url(#a);}</style><clipPath id="a"><rect class="a" width="24" height="24" transform="translate(960 790)"/></clipPath></defs><g class="b" transform="translate(-960 -790)"><g transform="translate(960 792.5)"><path d="M23.9,44.564a9.774,9.774,0,0,1-2.821.758,4.756,4.756,0,0,0,2.154-2.7,9.615,9.615,0,0,1-3.109,1.183,4.91,4.91,0,0,0-7.044-.114,4.721,4.721,0,0,0-1.433,3.465,5.436,5.436,0,0,0,.121,1.122A13.649,13.649,0,0,1,6.133,46.77a13.887,13.887,0,0,1-4.466-3.617,4.909,4.909,0,0,0-.076,4.807A4.893,4.893,0,0,0,3.184,49.7,4.859,4.859,0,0,1,.97,49.083v.061A4.734,4.734,0,0,0,2.084,52.26,4.819,4.819,0,0,0,4.9,53.951a5.075,5.075,0,0,1-1.289.167,6.249,6.249,0,0,1-.925-.075,4.909,4.909,0,0,0,4.58,3.4,9.591,9.591,0,0,1-6.081,2.092A10.428,10.428,0,0,1,0,59.471a13.6,13.6,0,0,0,7.522,2.2,14.311,14.311,0,0,0,4.9-.826,12.449,12.449,0,0,0,3.913-2.214,14.816,14.816,0,0,0,2.8-3.192,14.234,14.234,0,0,0,1.752-3.768,13.921,13.921,0,0,0,.576-3.935q0-.425-.015-.637A10.258,10.258,0,0,0,23.9,44.564Z" transform="translate(0.001 -42.259)"/></g></g></svg>